<?xml version="1.0" encoding="UTF-8"?>
<!DOCTYPE svg PUBLIC "-//W3C//DTD SVG 1.1//EN" "http://www.w3.org/Graphics/SVG/1.1/DTD/svg11.dtd">
<svg xmlns="http://www.w3.org/2000/svg" version="1.1" width="500px" height="500px" style="shape-rendering:geometricPrecision; text-rendering:geometricPrecision; image-rendering:optimizeQuality; fill-rule:evenodd; clip-rule:evenodd" xmlns:xlink="http://www.w3.org/1999/xlink">
<g><path style="opacity:1" fill="#d5d5d5" d="M -0.5,-0.5 C 166.167,-0.5 332.833,-0.5 499.5,-0.5C 499.5,166.167 499.5,332.833 499.5,499.5C 332.833,499.5 166.167,499.5 -0.5,499.5C -0.5,332.833 -0.5,166.167 -0.5,-0.5 Z"/></g>
<g><path style="opacity:1" fill="#fab415" d="M 236.5,111.5 C 239.247,111.187 241.914,111.52 244.5,112.5C 246.308,117.258 248.308,121.925 250.5,126.5C 252.692,121.925 254.692,117.258 256.5,112.5C 259.167,111.167 261.833,111.167 264.5,112.5C 261.333,120.167 258.167,127.833 255,135.5C 254.667,141.833 254.333,148.167 254,154.5C 251.619,155.435 249.119,155.768 246.5,155.5C 246.666,148.825 246.5,142.158 246,135.5C 242.543,127.591 239.377,119.591 236.5,111.5 Z"/></g>
<g><path style="opacity:1" fill="#fab417" d="M 222.5,112.5 C 228.167,111.502 230.501,113.836 229.5,119.5C 224.85,120.26 220.183,120.926 215.5,121.5C 216.167,125.167 216.833,128.833 217.5,132.5C 221.131,131.588 224.797,131.421 228.5,132C 229.423,134.041 229.756,136.208 229.5,138.5C 226.164,138.467 222.997,139.134 220,140.5C 220.553,146.456 221.053,152.456 221.5,158.5C 219.139,158.674 216.806,159.007 214.5,159.5C 212.112,145.447 209.445,131.447 206.5,117.5C 206.709,116.914 207.043,116.414 207.5,116C 212.646,114.875 217.646,113.709 222.5,112.5 Z"/></g>
<g><path style="opacity:1" fill="#fab416" d="M 271.5,112.5 C 278.121,113.857 284.787,115.024 291.5,116C 294.12,122.545 292.12,124.712 285.5,122.5C 282.214,133.979 279.714,145.646 278,157.5C 275.606,158.136 273.106,158.136 270.5,157.5C 272.501,145.161 274.501,132.827 276.5,120.5C 270.612,120.742 268.945,118.076 271.5,112.5 Z"/></g>
<g><path style="opacity:1" fill="#252a55" d="M 304.5,187.5 C 301.933,187.721 299.599,188.388 297.5,189.5C 296.167,189.5 294.833,189.5 293.5,189.5C 290.5,189.5 287.5,189.5 284.5,189.5C 282.621,190.341 280.621,190.675 278.5,190.5C 278.5,186.833 278.5,183.167 278.5,179.5C 278.5,177.5 278.5,175.5 278.5,173.5C 278.629,171.784 278.962,170.117 279.5,168.5C 288.551,143.961 306.218,133.127 332.5,136C 335.009,159.828 325.676,176.994 304.5,187.5 Z"/></g>
<g><path style="opacity:1" fill="#afb0ba" d="M 325.5,139.5 C 326.919,138.549 328.585,138.216 330.5,138.5C 330.66,140.199 330.494,141.866 330,143.5C 328.629,141.959 327.129,140.625 325.5,139.5 Z"/></g>
<g><path style="opacity:1" fill="#cecfd0" d="M 301.5,184.5 C 299.64,183.061 297.973,181.395 296.5,179.5C 296.297,177.956 295.63,176.622 294.5,175.5C 296.001,173.043 297.668,173.043 299.5,175.5C 299.902,173.366 299.902,171.366 299.5,169.5C 301.366,169.902 303.366,169.902 305.5,169.5C 302.833,164.833 303.833,163.833 308.5,166.5C 309.754,164.741 309.421,163.241 307.5,162C 308.333,161.167 309.167,160.333 310,159.5C 311.241,161.421 312.741,161.754 314.5,160.5C 312.73,159.18 312.397,157.68 313.5,156C 315.167,156.333 316.833,156.667 318.5,157C 318.833,156.667 319.167,156.333 319.5,156C 316.096,154.137 315.929,152.303 319,150.5C 320.11,152.037 321.61,152.703 323.5,152.5C 323.703,150.61 323.037,149.11 321.5,148C 323.037,146.89 323.703,145.39 323.5,143.5C 321.61,143.297 320.11,143.963 319,145.5C 317.89,143.963 316.39,143.297 314.5,143.5C 314.297,145.39 314.963,146.89 316.5,148C 316.167,148.333 315.833,148.667 315.5,149C 313.65,148.405 311.65,147.905 309.5,147.5C 309.905,149.65 310.405,151.65 311,153.5C 309.32,154.603 307.82,154.27 306.5,152.5C 305.246,154.259 305.579,155.759 307.5,157C 306.667,157.833 305.833,158.667 305,159.5C 303.981,158.313 302.814,157.313 301.5,156.5C 301.167,157 300.833,157.5 300.5,158C 303.333,163.167 302.167,164.333 297,161.5C 296.5,161.833 296,162.167 295.5,162.5C 296.313,163.814 297.313,164.981 298.5,166C 297.667,166.833 296.833,167.667 296,168.5C 294.759,166.579 293.259,166.246 291.5,167.5C 294.167,172.167 293.167,173.167 288.5,170.5C 287.478,170.855 286.811,171.522 286.5,172.5C 285.167,171.833 283.833,171.167 282.5,170.5C 286.677,153.491 297.343,142.991 314.5,139C 316.833,138.333 319.167,138.333 321.5,139C 324,141.5 326.5,144 329,146.5C 329.474,159.389 324.64,169.889 314.5,178C 310.691,181.238 306.358,183.404 301.5,184.5 Z"/></g>
<g><path style="opacity:1" fill="#646884" d="M 196.5,150.5 C 196.167,150.5 195.833,150.5 195.5,150.5C 195.5,148.833 195.5,147.167 195.5,145.5C 191.486,145.666 187.486,145.499 183.5,145C 190.036,143.989 196.369,144.656 202.5,147C 200.512,147.18 198.512,147.014 196.5,146.5C 196.5,147.833 196.5,149.167 196.5,150.5 Z"/></g>
<g><path style="opacity:1" fill="#242955" d="M 176.5,148.5 C 177.613,149.946 177.78,151.613 177,153.5C 174.294,155.871 171.961,158.537 170,161.5C 169.075,160.953 168.242,160.287 167.5,159.5C 169.45,154.892 172.45,151.226 176.5,148.5 Z"/></g>
<g><path style="opacity:1" fill="#1e2451" d="M 195.5,150.5 C 195.833,150.5 196.167,150.5 196.5,150.5C 198.962,153.464 201.629,156.297 204.5,159C 202.274,161.953 200.441,165.12 199,168.5C 196.913,167.603 194.746,166.936 192.5,166.5C 191.081,165.549 189.415,165.216 187.5,165.5C 187.406,161.864 186.739,158.364 185.5,155C 188.821,153.396 192.154,151.896 195.5,150.5 Z"/></g>
<g><path style="opacity:1" fill="#393d63" d="M 216.5,170.5 C 215.71,171.401 214.71,172.068 213.5,172.5C 214.076,167.882 213.076,163.715 210.5,160C 211.191,158.933 211.691,157.766 212,156.5C 214.447,161.002 215.947,165.669 216.5,170.5 Z"/></g>
<g><path style="opacity:1" fill="#24201c" d="M 279.5,168.5 C 278.962,170.117 278.629,171.784 278.5,173.5C 276.118,174.351 274.118,175.684 272.5,177.5C 271.275,178.937 270.275,180.604 269.5,182.5C 271.535,184.195 273.868,185.528 276.5,186.5C 277.474,184.257 277.808,181.924 277.5,179.5C 277.833,179.5 278.167,179.5 278.5,179.5C 278.5,183.167 278.5,186.833 278.5,190.5C 280.621,190.675 282.621,190.341 284.5,189.5C 284.833,190.5 285.5,191.167 286.5,191.5C 292.772,195.108 298.772,199.108 304.5,203.5C 304.833,204.5 305.5,205.167 306.5,205.5C 305.167,206.833 303.833,208.167 302.5,209.5C 302.141,207.629 301.141,206.129 299.5,205C 290.327,197.994 280.327,192.494 269.5,188.5C 270.753,196.093 272.92,203.426 276,210.5C 284,225.167 292,239.833 300,254.5C 302.178,261.661 303.012,268.995 302.5,276.5C 301.379,278.316 300.879,280.316 301,282.5C 304.138,279.208 306.638,275.542 308.5,271.5C 313.647,264.069 316.647,255.735 317.5,246.5C 317.415,244.667 316.748,243.334 315.5,242.5C 317.599,241.388 319.933,240.721 322.5,240.5C 319.402,274.765 301.402,296.931 268.5,307C 239.273,313.657 214.44,306.157 194,284.5C 191.642,281.778 189.809,278.778 188.5,275.5C 189.708,274.766 191.041,274.433 192.5,274.5C 198.217,285.268 199.551,284.934 196.5,273.5C 197.833,272.833 197.833,272.167 196.5,271.5C 196.423,267.785 196.756,264.119 197.5,260.5C 199.17,254.995 201.337,249.662 204,244.5C 214.156,229.989 222.156,214.323 228,197.5C 228.953,194.568 229.453,191.568 229.5,188.5C 217.038,192.891 206.038,199.558 196.5,208.5C 194.632,207.737 192.965,206.737 191.5,205.5C 198.662,200.522 205.996,195.689 213.5,191C 218.38,188.393 223.38,186.06 228.5,184C 229.528,180.214 228.194,177.381 224.5,175.5C 223.626,174.475 222.459,173.808 221,173.5C 217.018,175.339 213.185,177.339 209.5,179.5C 208.167,178.833 206.833,178.167 205.5,177.5C 208.167,175.833 210.833,174.167 213.5,172.5C 214.71,172.068 215.71,171.401 216.5,170.5C 230.405,163.815 245.071,161.648 260.5,164C 266.964,165.033 273.297,166.533 279.5,168.5 Z"/></g>
<g><path style="opacity:1" fill="#2b2f5a" d="M 135.5,165.5 C 136.675,165.281 137.675,165.614 138.5,166.5C 136.948,167.798 135.948,167.465 135.5,165.5 Z"/></g>
<g><path style="opacity:1" fill="#242955" d="M 296.5,179.5 C 295.883,179.611 295.383,179.944 295,180.5C 293.304,177.342 291.471,177.008 289.5,179.5C 287.821,179.715 286.821,179.048 286.5,177.5C 289.151,175.866 289.151,174.199 286.5,172.5C 286.811,171.522 287.478,170.855 288.5,170.5C 293.167,173.167 294.167,172.167 291.5,167.5C 293.259,166.246 294.759,166.579 296,168.5C 296.833,167.667 297.667,166.833 298.5,166C 297.313,164.981 296.313,163.814 295.5,162.5C 296,162.167 296.5,161.833 297,161.5C 302.167,164.333 303.333,163.167 300.5,158C 300.833,157.5 301.167,157 301.5,156.5C 302.814,157.313 303.981,158.313 305,159.5C 305.833,158.667 306.667,157.833 307.5,157C 305.579,155.759 305.246,154.259 306.5,152.5C 307.82,154.27 309.32,154.603 311,153.5C 310.405,151.65 309.905,149.65 309.5,147.5C 311.65,147.905 313.65,148.405 315.5,149C 315.833,148.667 316.167,148.333 316.5,148C 314.963,146.89 314.297,145.39 314.5,143.5C 316.39,143.297 317.89,143.963 319,145.5C 320.11,143.963 321.61,143.297 323.5,143.5C 323.703,145.39 323.037,146.89 321.5,148C 323.037,149.11 323.703,150.61 323.5,152.5C 321.61,152.703 320.11,152.037 319,150.5C 315.929,152.303 316.096,154.137 319.5,156C 319.167,156.333 318.833,156.667 318.5,157C 316.833,156.667 315.167,156.333 313.5,156C 312.397,157.68 312.73,159.18 314.5,160.5C 312.741,161.754 311.241,161.421 310,159.5C 309.167,160.333 308.333,161.167 307.5,162C 309.421,163.241 309.754,164.741 308.5,166.5C 303.833,163.833 302.833,164.833 305.5,169.5C 303.366,169.902 301.366,169.902 299.5,169.5C 299.902,171.366 299.902,173.366 299.5,175.5C 297.668,173.043 296.001,173.043 294.5,175.5C 295.63,176.622 296.297,177.956 296.5,179.5 Z"/></g>
<g><path style="opacity:1" fill="#d4b6a0" d="M 247.5,172.5 C 241.797,172.375 236.13,172.708 230.5,173.5C 229.027,172.928 227.693,172.095 226.5,171C 233.199,168.132 240.199,166.966 247.5,167.5C 247.5,169.167 247.5,170.833 247.5,172.5 Z"/></g>
<g><path style="opacity:1" fill="#d2b7a3" d="M 267.5,175.5 C 262.43,173.77 257.097,172.77 251.5,172.5C 251.5,170.833 251.5,169.167 251.5,167.5C 258.747,167.183 265.747,168.35 272.5,171C 270.963,172.707 269.296,174.207 267.5,175.5 Z"/></g>
<g><path style="opacity:1" fill="#202450" d="M 184.5,203.5 C 185.833,203.833 187.167,204.167 188.5,204.5C 189.391,205.11 190.391,205.443 191.5,205.5C 192.965,206.737 194.632,207.737 196.5,208.5C 198.85,210.213 199.85,212.547 199.5,215.5C 208.304,214.658 209.304,216.491 202.5,221C 201.5,221.667 200.5,221.667 199.5,221C 197.28,218.287 195.28,215.454 193.5,212.5C 190.893,211.198 188.227,211.364 185.5,213C 185.335,214.117 185.002,215.284 184.5,216.5C 184.855,217.522 185.522,218.189 186.5,218.5C 189.048,221.638 190.548,225.305 191,229.5C 193.448,231.631 195.948,233.631 198.5,235.5C 197.919,237.724 196.586,238.557 194.5,238C 191.024,235.843 188.357,233.01 186.5,229.5C 184.995,223.208 182.995,223.208 180.5,229.5C 178.684,231.118 177.351,233.118 176.5,235.5C 170.472,239.053 168.138,244.219 169.5,251C 172.168,251.567 174.834,252.067 177.5,252.5C 178.496,252.414 179.329,252.748 180,253.5C 180.872,257.181 182.706,260.181 185.5,262.5C 186.899,268.321 190.566,271.321 196.5,271.5C 197.833,272.167 197.833,272.833 196.5,273.5C 195.292,274.234 193.959,274.567 192.5,274.5C 191.041,274.433 189.708,274.766 188.5,275.5C 187.167,275.5 185.833,275.5 184.5,275.5C 184.662,273.473 184.495,271.473 184,269.5C 180.682,266.186 178.182,262.352 176.5,258C 172.818,257.778 169.152,258.111 165.5,259C 163.331,261.203 160.665,262.036 157.5,261.5C 157.116,265.586 156.283,269.586 155,273.5C 154.653,275.18 153.653,276.18 152,276.5C 146.891,274.578 142.224,271.911 138,268.5C 136.699,269.098 135.865,270.098 135.5,271.5C 137.637,272.868 139.97,273.868 142.5,274.5C 141.372,275.262 140.205,275.929 139,276.5C 135.805,275.851 132.639,275.018 129.5,274C 124.734,268.132 126.068,264.298 133.5,262.5C 134.736,263.246 136.07,263.579 137.5,263.5C 137.092,260.401 138.259,258.067 141,256.5C 142.009,254.975 142.509,253.308 142.5,251.5C 140.139,251.674 137.806,252.007 135.5,252.5C 135.5,251.5 135.5,250.5 135.5,249.5C 138.85,249.335 142.183,249.502 145.5,250C 146.357,250.689 147.023,251.522 147.5,252.5C 146.167,253.62 145.667,254.953 146,256.5C 149.993,254.421 154.159,252.754 158.5,251.5C 162.404,242.357 168.237,234.69 176,228.5C 177.176,224.74 176.01,221.907 172.5,220C 173.672,219.581 174.672,218.915 175.5,218C 172.549,214.059 168.715,211.226 164,209.5C 161.74,211.807 159.573,214.307 157.5,217C 153.607,219.017 149.607,220.517 145.5,221.5C 145.628,219.345 145.128,217.345 144,215.5C 141.065,213.383 138.398,211.049 136,208.5C 135.333,205.833 135.333,203.167 136,200.5C 138.912,198.995 141.245,199.662 143,202.5C 143.333,205.5 143.667,208.5 144,211.5C 145.511,219.624 149.011,220.624 154.5,214.5C 155.125,210.388 155.458,206.388 155.5,202.5C 148.167,203.833 145.167,200.833 146.5,193.5C 149.118,193.779 151.618,194.446 154,195.5C 154.167,195 154.333,194.5 154.5,194C 152.354,188.21 150.354,182.376 148.5,176.5C 146.833,175.833 145.167,175.167 143.5,174.5C 145.104,172.821 145.771,170.821 145.5,168.5C 146.5,168.5 147.5,168.5 148.5,168.5C 150.948,177.727 155.281,186.06 161.5,193.5C 168.74,197.815 176.406,201.148 184.5,203.5 Z"/></g>
<g><path style="opacity:1" fill="#1f2551" d="M 359.5,179.5 C 358.903,178.861 358.07,178.528 357,178.5C 350.895,179.637 344.895,180.97 339,182.5C 337.285,185.435 335.452,188.268 333.5,191C 337.986,197.934 338.652,205.267 335.5,213C 338.436,217.236 337.436,218.402 332.5,216.5C 333.496,211.537 333.663,206.537 333,201.5C 331.692,199.359 330.192,197.359 328.5,195.5C 322.779,194.685 318.113,196.685 314.5,201.5C 313.167,202.167 312.167,203.167 311.5,204.5C 309.973,204.427 308.973,205.094 308.5,206.5C 307.659,207.926 306.659,209.26 305.5,210.5C 304.209,210.737 303.209,210.404 302.5,209.5C 303.833,208.167 305.167,206.833 306.5,205.5C 307.345,204.329 308.011,202.995 308.5,201.5C 310.262,200.738 311.262,199.404 311.5,197.5C 317.286,193.879 321.953,189.045 325.5,183C 323.842,182.275 323.342,181.108 324,179.5C 326.167,178.667 327.667,177.167 328.5,175C 330.5,174.667 332.5,174.333 334.5,174C 335.167,172.333 335.833,170.667 336.5,169C 340.858,168.537 342.191,170.37 340.5,174.5C 341.09,175.799 342.09,176.632 343.5,177C 348.823,177.88 353.989,177.38 359,175.5C 361.756,175.424 362.923,176.757 362.5,179.5C 361.5,179.5 360.5,179.5 359.5,179.5 Z"/></g>
<g><path style="opacity:1" fill="#85889c" d="M 187.5,165.5 C 189.415,165.216 191.081,165.549 192.5,166.5C 186.748,166.916 183.081,169.916 181.5,175.5C 179.961,174.233 178.294,173.233 176.5,172.5C 177.873,172.657 179.207,172.49 180.5,172C 182.703,169.628 185.037,167.461 187.5,165.5 Z"/></g>
<g><path style="opacity:1" fill="#1c2350" d="M 176.5,172.5 C 178.294,173.233 179.961,174.233 181.5,175.5C 185.131,180.595 184.131,184.262 178.5,186.5C 175.101,184.612 172.101,182.112 169.5,179C 170.252,178.329 170.586,177.496 170.5,176.5C 170.145,171.514 172.145,170.181 176.5,172.5 Z"/></g>
<g><path style="opacity:1" fill="#222121" d="M 282.5,170.5 C 283.833,171.167 285.167,171.833 286.5,172.5C 289.151,174.199 289.151,175.866 286.5,177.5C 284.95,176.559 283.284,175.893 281.5,175.5C 281.216,173.585 281.549,171.919 282.5,170.5 Z"/></g>
<g><path style="opacity:1" fill="#e96508" d="M 247.5,172.5 C 247.5,175.167 247.5,177.833 247.5,180.5C 243.138,180.756 238.805,180.923 234.5,181C 233.027,178.552 231.693,176.052 230.5,173.5C 236.13,172.708 241.797,172.375 247.5,172.5 Z"/></g>
<g><path style="opacity:1" fill="#e3650d" d="M 251.5,172.5 C 257.097,172.77 262.43,173.77 267.5,175.5C 267.123,177.258 266.456,178.925 265.5,180.5C 260.88,181.18 256.213,181.18 251.5,180.5C 251.5,177.833 251.5,175.167 251.5,172.5 Z"/></g>
<g><path style="opacity:1" fill="#c6ab9a" d="M 278.5,173.5 C 278.5,175.5 278.5,177.5 278.5,179.5C 278.167,179.5 277.833,179.5 277.5,179.5C 275.95,178.559 274.284,177.893 272.5,177.5C 274.118,175.684 276.118,174.351 278.5,173.5 Z"/></g>
<g><path style="opacity:1" fill="#222753" d="M 359.5,179.5 C 359.892,182.193 361.058,184.859 363,187.5C 363.11,185.152 364.277,183.652 366.5,183C 364.821,180.435 364.154,177.602 364.5,174.5C 366.467,174.261 368.301,174.594 370,175.5C 370.346,180.284 371.18,184.95 372.5,189.5C 371.294,196.599 369.628,203.599 367.5,210.5C 369.314,214.741 370.981,219.074 372.5,223.5C 371.277,224.614 369.944,224.781 368.5,224C 369.022,223.439 369.355,222.772 369.5,222C 366.416,216.477 364.749,210.644 364.5,204.5C 354.157,203.839 350.49,208.506 353.5,218.5C 352.092,219.243 350.759,220.077 349.5,221C 348.056,221.781 346.723,221.614 345.5,220.5C 346.76,219.618 347.926,218.618 349,217.5C 349.333,213.167 349.667,208.833 350,204.5C 354.293,201.61 358.459,198.61 362.5,195.5C 359.923,193.068 357.257,190.902 354.5,189C 355.101,187.395 356.101,186.062 357.5,185C 354.677,182.045 355.344,180.212 359.5,179.5 Z"/></g>
<g><path style="opacity:1" fill="#e66409" d="M 224.5,175.5 C 228.194,177.381 229.528,180.214 228.5,184C 223.38,186.06 218.38,188.393 213.5,191C 205.996,195.689 198.662,200.522 191.5,205.5C 190.391,205.443 189.391,205.11 188.5,204.5C 190.742,198.666 194.409,193.999 199.5,190.5C 203.689,189.786 207.022,187.786 209.5,184.5C 213.326,179.745 218.326,176.745 224.5,175.5 Z"/></g>
<g><path style="opacity:1" fill="#ceb4a3" d="M 281.5,175.5 C 283.284,175.893 284.95,176.559 286.5,177.5C 286.821,179.048 287.821,179.715 289.5,179.5C 292.188,181.521 294.521,183.854 296.5,186.5C 294.085,186.627 291.751,186.793 289.5,187C 287,184.5 284.5,182 282,179.5C 281.51,178.207 281.343,176.873 281.5,175.5 Z"/></g>
<g><path style="opacity:1" fill="#e46409" d="M 272.5,177.5 C 274.284,177.893 275.95,178.559 277.5,179.5C 277.808,181.924 277.474,184.257 276.5,186.5C 273.868,185.528 271.535,184.195 269.5,182.5C 270.275,180.604 271.275,178.937 272.5,177.5 Z"/></g>
<g><path style="opacity:1" fill="#212550" d="M 205.5,177.5 C 206.833,178.167 208.167,178.833 209.5,179.5C 208.904,181.398 208.904,183.065 209.5,184.5C 207.022,187.786 203.689,189.786 199.5,190.5C 197.225,189.889 195.559,188.555 194.5,186.5C 196.085,184.383 198.251,182.05 201,179.5C 201.333,177.5 201.667,175.5 202,173.5C 202.49,174.793 202.657,176.127 202.5,177.5C 203.5,177.5 204.5,177.5 205.5,177.5 Z"/></g>
<g><path style="opacity:1" fill="#242424" d="M 296.5,179.5 C 297.973,181.395 299.64,183.061 301.5,184.5C 299.833,185.167 298.167,185.833 296.5,186.5C 294.521,183.854 292.188,181.521 289.5,179.5C 291.471,177.008 293.304,177.342 295,180.5C 295.383,179.944 295.883,179.611 296.5,179.5 Z"/></g>
<g><path style="opacity:1" fill="#8b8da0" d="M 170.5,176.5 C 170.586,177.496 170.252,178.329 169.5,179C 172.101,182.112 175.101,184.612 178.5,186.5C 179.987,190.592 182.987,192.758 187.5,193C 175.592,192.424 168.759,186.257 167,174.5C 167.533,176.939 168.7,177.605 170.5,176.5 Z"/></g>
<g><path style="opacity:1" fill="#b89482" d="M 224.5,175.5 C 218.326,176.745 213.326,179.745 209.5,184.5C 208.904,183.065 208.904,181.398 209.5,179.5C 213.185,177.339 217.018,175.339 221,173.5C 222.459,173.808 223.626,174.475 224.5,175.5 Z"/></g>
<g><path style="opacity:1" fill="#ba551d" d="M 280.5,182.5 C 282.296,183.793 283.963,185.293 285.5,187C 283.866,187.494 282.199,187.66 280.5,187.5C 280.5,185.833 280.5,184.167 280.5,182.5 Z"/></g>
<g><path style="opacity:1" fill="#ee6605" d="M 247.5,292.5 C 228.925,289.883 213.592,281.55 201.5,267.5C 201.869,261.555 203.369,255.888 206,250.5C 213.734,237.756 221.067,224.756 228,211.5C 231.425,203.468 233.758,195.134 235,186.5C 239.105,185.653 243.272,184.987 247.5,184.5C 247.5,220.5 247.5,256.5 247.5,292.5 Z"/></g>
<g><path style="opacity:1" fill="#a34b0c" d="M 257.5,185.5 C 255.833,185.5 254.167,185.5 252.5,185.5C 252.5,221.5 252.5,257.5 252.5,293.5C 252.167,293.5 251.833,293.5 251.5,293.5C 251.5,257.167 251.5,220.833 251.5,184.5C 253.735,184.205 255.735,184.539 257.5,185.5 Z"/></g>
<g><path style="opacity:1" fill="#ee6605" d="M 257.5,185.5 C 259.792,185.244 261.959,185.577 264,186.5C 265.728,194.683 268.061,202.683 271,210.5C 279,225.167 287,239.833 295,254.5C 299.686,264.079 299.519,273.413 294.5,282.5C 281.692,290.419 267.692,294.086 252.5,293.5C 252.5,257.5 252.5,221.5 252.5,185.5C 254.167,185.5 255.833,185.5 257.5,185.5 Z"/></g>
<g><path style="opacity:1" fill="#282726" d="M 304.5,187.5 C 307.336,190.513 309.669,193.846 311.5,197.5C 311.262,199.404 310.262,200.738 308.5,201.5C 306.865,195.536 303.199,191.536 297.5,189.5C 299.599,188.388 301.933,187.721 304.5,187.5 Z"/></g>
<g><path style="opacity:1" fill="#ea6507" d="M 197.5,260.5 C 190.879,251.31 187.213,240.977 186.5,229.5C 188.357,233.01 191.024,235.843 194.5,238C 196.586,238.557 197.919,237.724 198.5,235.5C 195.948,233.631 193.448,231.631 191,229.5C 190.548,225.305 189.048,221.638 186.5,218.5C 187.612,215.054 189.945,213.054 193.5,212.5C 195.28,215.454 197.28,218.287 199.5,221C 200.5,221.667 201.5,221.667 202.5,221C 209.304,216.491 208.304,214.658 199.5,215.5C 199.85,212.547 198.85,210.213 196.5,208.5C 206.038,199.558 217.038,192.891 229.5,188.5C 229.453,191.568 228.953,194.568 228,197.5C 222.156,214.323 214.156,229.989 204,244.5C 201.337,249.662 199.17,254.995 197.5,260.5 Z"/></g>
<g><path style="opacity:1" fill="#eb6606" d="M 302.5,209.5 C 303.209,210.404 304.209,210.737 305.5,210.5C 308.167,212.5 310.5,214.833 312.5,217.5C 314.771,222.585 316.104,227.918 316.5,233.5C 314.035,234.755 312.368,236.255 311.5,238C 306.066,238.966 300.732,240.299 295.5,242C 298.062,243.141 300.728,243.974 303.5,244.5C 307.317,242.804 311.317,242.137 315.5,242.5C 316.748,243.334 317.415,244.667 317.5,246.5C 316.647,255.735 313.647,264.069 308.5,271.5C 306.5,273.167 304.5,274.833 302.5,276.5C 303.012,268.995 302.178,261.661 300,254.5C 292,239.833 284,225.167 276,210.5C 272.92,203.426 270.753,196.093 269.5,188.5C 280.327,192.494 290.327,197.994 299.5,205C 301.141,206.129 302.141,207.629 302.5,209.5 Z"/></g>
<g><path style="opacity:1" fill="#914a28" d="M 284.5,189.5 C 287.5,189.5 290.5,189.5 293.5,189.5C 293.5,189.833 293.5,190.167 293.5,190.5C 290.941,190.198 288.607,190.532 286.5,191.5C 285.5,191.167 284.833,190.5 284.5,189.5 Z"/></g>
<g><path style="opacity:1" fill="#d5b8a4" d="M 293.5,190.5 C 293.5,190.167 293.5,189.833 293.5,189.5C 294.833,189.5 296.167,189.5 297.5,189.5C 303.199,191.536 306.865,195.536 308.5,201.5C 308.011,202.995 307.345,204.329 306.5,205.5C 305.5,205.167 304.833,204.5 304.5,203.5C 301.954,198.281 298.287,193.948 293.5,190.5 Z"/></g>
<g><path style="opacity:1" fill="#e56710" d="M 286.5,191.5 C 288.607,190.532 290.941,190.198 293.5,190.5C 298.287,193.948 301.954,198.281 304.5,203.5C 298.772,199.108 292.772,195.108 286.5,191.5 Z"/></g>
<g><path style="opacity:1" fill="#282422" d="M 194.5,186.5 C 195.559,188.555 197.225,189.889 199.5,190.5C 194.409,193.999 190.742,198.666 188.5,204.5C 187.167,204.167 185.833,203.833 184.5,203.5C 187.581,197.669 190.915,192.002 194.5,186.5 Z"/></g>
<g><path style="opacity:1" fill="#242321" d="M 314.5,201.5 C 319.18,209.883 321.847,218.883 322.5,228.5C 321.5,230.167 320.167,231.5 318.5,232.5C 319.509,226.199 317.509,221.199 312.5,217.5C 310.5,214.833 308.167,212.5 305.5,210.5C 306.659,209.26 307.659,207.926 308.5,206.5C 315.006,214.834 316.006,214.168 311.5,204.5C 312.167,203.167 313.167,202.167 314.5,201.5 Z"/></g>
<g><path style="opacity:1" fill="#c8b09e" d="M 311.5,204.5 C 316.006,214.168 315.006,214.834 308.5,206.5C 308.973,205.094 309.973,204.427 311.5,204.5 Z"/></g>
<g><path style="opacity:1" fill="#221e1f" d="M 193.5,212.5 C 189.945,213.054 187.612,215.054 186.5,218.5C 185.522,218.189 184.855,217.522 184.5,216.5C 185.002,215.284 185.335,214.117 185.5,213C 188.227,211.364 190.893,211.198 193.5,212.5 Z"/></g>
<g><path style="opacity:1" fill="#222652" d="M 322.5,240.5 C 319.933,240.721 317.599,241.388 315.5,242.5C 311.317,242.137 307.317,242.804 303.5,244.5C 300.728,243.974 298.062,243.141 295.5,242C 300.732,240.299 306.066,238.966 311.5,238C 312.368,236.255 314.035,234.755 316.5,233.5C 317.167,233.167 317.833,232.833 318.5,232.5C 320.167,231.5 321.5,230.167 322.5,228.5C 325.836,224.664 329.336,220.997 333,217.5C 334.261,217.759 335.261,218.426 336,219.5C 337.667,223.5 339.333,227.5 341,231.5C 346.301,234.636 351.468,237.97 356.5,241.5C 357.167,243.167 357.833,244.833 358.5,246.5C 362.833,247.167 367.167,247.833 371.5,248.5C 372.95,247.345 373.95,245.845 374.5,244C 375.965,243.399 376.965,243.899 377.5,245.5C 376.352,247.149 375.019,248.649 373.5,250C 368.177,250.499 362.844,250.666 357.5,250.5C 359.932,260.065 356.265,264.398 346.5,263.5C 344.43,269.309 341.597,274.642 338,279.5C 335.028,278.004 335.362,276.671 339,275.5C 340.915,268.423 343.248,261.423 346,254.5C 346.667,251.5 346.667,248.5 346,245.5C 341.876,244.333 338.042,242.5 334.5,240C 330.311,239.188 326.311,239.355 322.5,240.5 Z"/></g>
<g><path style="opacity:1" fill="#ccb09b" d="M 312.5,217.5 C 317.509,221.199 319.509,226.199 318.5,232.5C 317.833,232.833 317.167,233.167 316.5,233.5C 316.104,227.918 314.771,222.585 312.5,217.5 Z"/></g>
<g><path style="opacity:1" fill="#d91c3d" d="M 186.5,229.5 C 187.213,240.977 190.879,251.31 197.5,260.5C 196.756,264.119 196.423,267.785 196.5,271.5C 190.566,271.321 186.899,268.321 185.5,262.5C 181.348,251.917 179.681,240.917 180.5,229.5C 182.995,223.208 184.995,223.208 186.5,229.5 Z"/></g>
<g><path style="opacity:1" fill="#c5c5c9" d="M 330.5,226.5 C 332.308,227.918 332.975,229.918 332.5,232.5C 329.174,233.345 325.84,233.845 322.5,234C 325.432,231.715 328.098,229.215 330.5,226.5 Z"/></g>
<g><path style="opacity:1" fill="#221f1f" d="M 180.5,229.5 C 179.681,240.917 181.348,251.917 185.5,262.5C 182.706,260.181 180.872,257.181 180,253.5C 179.329,252.748 178.496,252.414 177.5,252.5C 177.093,246.839 176.76,241.172 176.5,235.5C 177.351,233.118 178.684,231.118 180.5,229.5 Z"/></g>
<g><path style="opacity:1" fill="#cacacc" d="M 176.5,235.5 C 176.76,241.172 177.093,246.839 177.5,252.5C 174.834,252.067 172.168,251.567 169.5,251C 168.138,244.219 170.472,239.053 176.5,235.5 Z"/></g>
<g><path style="opacity:1" fill="#c6c6ca" d="M 152.5,263.5 C 153.586,263.62 154.253,264.287 154.5,265.5C 153.863,268.107 152.696,270.44 151,272.5C 149.647,271.315 148.48,269.981 147.5,268.5C 149.394,267.055 151.06,265.388 152.5,263.5 Z"/></g>
<g><path style="opacity:1" fill="#db1c3d" d="M 201.5,267.5 C 213.592,281.55 228.925,289.883 247.5,292.5C 247.5,296.833 247.5,301.167 247.5,305.5C 228.597,305.803 214.097,298.136 204,282.5C 202.105,277.675 201.272,272.675 201.5,267.5 Z"/></g>
<g><path style="opacity:1" fill="#ca1b3b" d="M 196.5,273.5 C 199.551,284.934 198.217,285.268 192.5,274.5C 193.959,274.567 195.292,274.234 196.5,273.5 Z"/></g>
<g><path style="opacity:1" fill="#fab416" d="M 173.5,274.5 C 176.365,277.19 178.531,280.523 180,284.5C 180.757,287.914 179.59,288.914 176.5,287.5C 175.525,281.636 172.692,280.303 168,283.5C 167.571,285.669 168.071,287.669 169.5,289.5C 168.653,290.845 167.487,291.845 166,292.5C 165.152,290.126 163.819,288.126 162,286.5C 159,287.833 156,289.167 153,290.5C 150.853,289.404 150.353,287.904 151.5,286C 159.052,282.392 166.386,278.559 173.5,274.5 Z"/></g>
<g><path style="opacity:1" fill="#f9b51b" d="M 324.5,274.5 C 332.937,278.553 341.27,282.886 349.5,287.5C 348.917,289.002 348.084,290.335 347,291.5C 343.22,289.19 339.387,287.357 335.5,286C 339.314,288.647 342.647,291.813 345.5,295.5C 345.113,296.72 344.28,297.387 343,297.5C 339.287,295.811 335.454,294.977 331.5,295C 335.496,296.663 339.163,298.829 342.5,301.5C 342.023,302.478 341.357,303.311 340.5,304C 332.305,301.153 324.471,297.32 317,292.5C 316.493,290.165 317.16,288.165 319,286.5C 337.551,293.409 338.884,291.409 323,280.5C 322.591,278.305 323.091,276.305 324.5,274.5 Z"/></g>
<g><path style="opacity:1" fill="#c41d39" d="M 308.5,271.5 C 306.638,275.542 304.138,279.208 301,282.5C 300.879,280.316 301.379,278.316 302.5,276.5C 304.5,274.833 306.5,273.167 308.5,271.5 Z"/></g>
<g><path style="opacity:1" fill="#dc1c3d" d="M 294.5,282.5 C 291.799,289.371 287.132,294.538 280.5,298C 272.943,301.91 264.943,304.076 256.5,304.5C 255.167,304.5 253.833,304.5 252.5,304.5C 252.5,300.833 252.5,297.167 252.5,293.5C 267.692,294.086 281.692,290.419 294.5,282.5 Z"/></g>
<g><path style="opacity:1" fill="#fab415" d="M 180.5,288.5 C 184.467,289.254 185.133,291.087 182.5,294C 175.581,298.376 168.748,302.876 162,307.5C 159.545,305.572 159.378,303.738 161.5,302C 168.252,297.969 174.585,293.469 180.5,288.5 Z"/></g>
<g><path style="opacity:1" fill="#951b30" d="M 251.5,293.5 C 251.833,293.5 252.167,293.5 252.5,293.5C 252.5,297.167 252.5,300.833 252.5,304.5C 253.833,304.5 255.167,304.5 256.5,304.5C 255.081,305.451 253.415,305.784 251.5,305.5C 251.5,301.5 251.5,297.5 251.5,293.5 Z"/></g>
<g><path style="opacity:1" fill="#f9b51a" d="M 184.5,293.5 C 186.384,293.712 187.717,294.712 188.5,296.5C 185.983,301.19 183.816,305.857 182,310.5C 184.833,307.667 187.667,304.833 190.5,302C 193.667,301.167 194.833,302.333 194,305.5C 188.071,310.884 182.238,316.384 176.5,322C 174.094,322.779 172.427,321.946 171.5,319.5C 181.841,304.477 180.674,303.144 168,315.5C 166.833,314.333 165.667,313.167 164.5,312C 171.363,305.967 178.03,299.801 184.5,293.5 Z"/></g>
<g><path style="opacity:1" fill="#f9b51a" d="M 310.5,296.5 C 319.542,300.188 328.209,304.688 336.5,310C 334.439,314.26 331.939,314.427 329,310.5C 327.5,312 326,313.5 324.5,315C 327.899,317.517 328.065,320.017 325,322.5C 319.675,315.865 314.342,309.198 309,302.5C 308.252,300.16 308.752,298.16 310.5,296.5 Z"/></g>
<g><path style="opacity:1" fill="#f9b519" d="M 195.5,305.5 C 201.128,307.278 204.294,310.945 205,316.5C 200.833,322 196.667,327.5 192.5,333C 187.341,333.429 183.008,331.595 179.5,327.5C 184.471,319.868 189.805,312.535 195.5,305.5 Z"/></g>
<g><path style="opacity:1" fill="#f9b51a" d="M 301.5,305.5 C 303.635,305.147 304.968,305.98 305.5,308C 304.256,310.382 302.423,312.215 300,313.5C 300.382,315.771 301.549,317.771 303.5,319.5C 305.167,318.167 306.833,316.833 308.5,315.5C 309.833,316.167 310.833,317.167 311.5,318.5C 310.027,320.395 308.36,322.061 306.5,323.5C 307.604,325.389 308.937,327.055 310.5,328.5C 313.009,327.079 315.343,325.412 317.5,323.5C 318.845,324.347 319.845,325.513 320.5,327C 316.976,330.025 313.309,332.858 309.5,335.5C 304.667,329.167 299.833,322.833 295,316.5C 293.59,317.787 292.09,318.954 290.5,320C 293.961,326.422 297.294,332.922 300.5,339.5C 299.653,340.845 298.487,341.845 297,342.5C 293.078,335.658 289.412,328.658 286,321.5C 283.149,324.644 281.316,324.144 280.5,320C 285.305,316.76 290.305,313.76 295.5,311C 297.763,309.383 299.763,307.55 301.5,305.5 Z"/></g>
<g><path style="opacity:1" fill="#d8d3c7" d="M 315.5,304.5 C 315.56,303.957 315.893,303.624 316.5,303.5C 318.67,305.086 321.004,306.42 323.5,307.5C 324.476,309.123 323.976,310.457 322,311.5C 320.281,308.712 318.115,306.379 315.5,304.5 Z"/></g>
<g><path style="opacity:1" fill="#d8d4cb" d="M 196.5,311.5 C 198.914,312.406 199.747,314.072 199,316.5C 196.089,319.99 193.422,323.656 191,327.5C 187.667,329.167 186.333,328.167 187,324.5C 190.674,320.462 193.841,316.129 196.5,311.5 Z"/></g>
<g><path style="opacity:1" fill="#fab415" d="M 213.5,317.5 C 214.822,317.33 215.989,317.663 217,318.5C 217.333,322.167 217.667,325.833 218,329.5C 220.54,327.295 222.707,324.795 224.5,322C 226.464,321.376 228.131,321.876 229.5,323.5C 225.481,327.685 221.647,332.018 218,336.5C 216.735,339.461 215.569,342.461 214.5,345.5C 212.453,346.904 210.786,346.571 209.5,344.5C 213.149,335.899 214.483,326.899 213.5,317.5 Z"/></g>
<g><path style="opacity:1" fill="#f9b51a" d="M 231.5,323.5 C 234.988,323.705 238.321,324.539 241.5,326C 242.108,327.231 242.441,328.564 242.5,330C 241.241,336.48 240.074,342.98 239,349.5C 235.682,352.937 231.849,353.437 227.5,351C 225.993,349.527 225.326,347.693 225.5,345.5C 226.225,340.15 227.058,334.817 228,329.5C 228.564,327.113 229.73,325.113 231.5,323.5 Z"/></g>
<g><path style="opacity:1" fill="#f9b51c" d="M 262.5,323.5 C 266.106,323.211 269.606,323.544 273,324.5C 275.481,329.827 275.981,335.327 274.5,341C 275.57,343.806 276.903,346.473 278.5,349C 276.854,350.401 275.187,350.568 273.5,349.5C 268.523,340.054 267.189,340.387 269.5,350.5C 268.15,351.95 266.484,352.617 264.5,352.5C 262.479,343.894 260.645,335.228 259,326.5C 258.667,334.5 258.333,342.5 258,350.5C 254.133,354.086 249.967,354.42 245.5,351.5C 244.529,342.888 244.196,334.221 244.5,325.5C 246.167,325.5 247.833,325.5 249.5,325.5C 249.5,333.167 249.5,340.833 249.5,348.5C 250.833,348.5 252.167,348.5 253.5,348.5C 253.5,340.5 253.5,332.5 253.5,324.5C 256.713,324.81 259.713,324.477 262.5,323.5 Z"/></g>
<g><path style="opacity:1" fill="#d8d3ca" d="M 264.5,328.5 C 266.167,328.5 267.833,328.5 269.5,328.5C 269.511,330.547 269.844,332.547 270.5,334.5C 269.976,337.396 268.476,338.063 266,336.5C 265.433,333.832 264.933,331.166 264.5,328.5 Z"/></g>
<g><path style="opacity:1" fill="#d8d4ca" d="M 233.5,328.5 C 235.948,328.085 237.281,329.085 237.5,331.5C 236.62,336.49 235.787,341.49 235,346.5C 231.869,348.166 230.369,347.166 230.5,343.5C 231.183,338.394 232.183,333.394 233.5,328.5 Z"/></g>
</svg>
